<?xml version="1.0" encoding="utf-8"?>
<!-- Generator: Adobe Illustrator 27.9.0, SVG Export Plug-In . SVG Version: 6.00 Build 0)  -->
<svg version="1.1" id="Layer_1" xmlns="http://www.w3.org/2000/svg" xmlns:xlink="http://www.w3.org/1999/xlink" x="0px" y="0px"
	 viewBox="0 0 256.05 55.15" style="enable-background:new 0 0 256.05 55.15;" xml:space="preserve">
<style type="text/css">
	.st0{fill:url(#SVGID_1_);}
</style>
<g>
	<path d="M48.32,34.63c0,7.39-5.99,13.38-13.38,13.38H6.34v0h0V6.02h26.49c6.26,0,11.34,5.08,11.34,11.34
		c0,2.26-0.68,4.36-1.82,6.13C45.94,25.89,48.32,29.98,48.32,34.63z M13.82,21.22h19c2.13,0,3.86-1.73,3.86-3.86
		s-1.73-3.86-3.86-3.86h-19V21.22z M40.83,34.63c0-3.25-2.65-5.9-5.9-5.9H13.82v11.8h21.11C38.19,40.53,40.83,37.88,40.83,34.63z"/>
	<path d="M88.31,40.51l3.82,7.51h-8.41l-3.84-7.51l-4.01-7.87l-0.18-0.33c-1.3-2.15-3.67-3.59-6.39-3.59h-7.48v19.3h-7.48v-42h26.5
		c3.14,0,5.96,1.27,8.01,3.32c2.04,2.07,3.32,4.91,3.32,8.03c0,4.59-2.72,8.56-6.63,10.33c-1.02,0.47-2.12,0.8-3.27,0.92
		c0,0-0.01,0-0.01,0L88.31,40.51z M80.83,21.23c0.55,0,1.07-0.1,1.57-0.35c1.4-0.62,2.27-2,2.27-3.52c0-1.37-0.72-2.32-1.15-2.77
		c-0.5-0.47-1.37-1.1-2.69-1.1H61.83v7.73H80.83z"/>
	<linearGradient id="SVGID_1_" gradientUnits="userSpaceOnUse" x1="119.5347" y1="48.0176" x2="119.5347" y2="6.0156">
		<stop  offset="0.2672" style="stop-color:#18BF00"/>
		<stop  offset="0.5651" style="stop-color:#72DB1B"/>
		<stop  offset="0.8636" style="stop-color:#C6F535"/>
		<stop  offset="1" style="stop-color:#E8FF3F"/>
	</linearGradient>
	<path class="st0" d="M140.93,48.02h-8.41l-3.84-7.51l-9.15-17.98l-9.15,17.98l-3.84,7.51h-8.41l3.82-7.51l17.58-34.49l17.58,34.49
		L140.93,48.02z"/>
	<path d="M146.91,48V6.03h7.49V48H146.91z"/>
	<path d="M202.42,6.02v42l-7.51-5.79l-26.99-20.8v26.59h-7.51V6.17l7.51,5.79l26.99,20.8V6.02H202.42z"/>
	<path d="M250.39,6.05v7.49h-17.25v34.49h-7.49V13.54h-17.24V6.05H250.39z"/>
</g>
</svg>
